<svg width="38" height="30" viewBox="0 0 38 30" fill="none" xmlns="http://www.w3.org/2000/svg">
<g clip-path="url(#clip0)">
<g clip-path="url(#clip1)">
<path d="M19.8534 0H10.6444C2.2406 0 0.248413 1.99219 0.248413 10.3959V19.605C0.248413 28.0088 2.2406 30.0009 10.6444 30.0009H19.8534C28.2572 30.0009 30.2493 28.0088 30.2493 19.605V10.3959C30.2493 1.99219 28.2375 0 19.8534 0ZM24.4678 21.4012H22.29C21.465 21.4012 21.2109 20.7469 19.7268 19.2431C18.4378 17.9934 17.8668 17.8275 17.549 17.8275C17.1 17.8275 16.9725 17.9541 16.9725 18.57V20.5378C16.9725 21.0656 16.8065 21.3825 15.4097 21.3825C13.0997 21.3825 10.5365 19.9856 8.73935 17.3831C6.02904 13.5694 5.28748 10.7128 5.28748 10.1222C5.28748 9.80437 5.41404 9.50719 6.02435 9.50719H8.20685C8.75904 9.50719 8.96904 9.76125 9.18373 10.3519C10.2628 13.4672 12.06 16.1962 12.8015 16.1962C13.0753 16.1962 13.2019 16.0697 13.2019 15.3713V12.1537C13.1184 10.6697 12.3375 10.5422 12.3375 10.0153C12.3375 9.76125 12.5475 9.50719 12.884 9.50719H16.3162C16.7803 9.50719 16.9509 9.76125 16.9509 10.3078V14.6484C16.9509 15.1172 17.1609 15.2831 17.2875 15.2831C17.5612 15.2831 17.7956 15.1172 18.3028 14.6091C19.8703 12.8512 20.9934 10.1409 20.9934 10.1409C21.1397 9.82313 21.3937 9.52594 21.9459 9.52594H24.1284C24.7828 9.52594 24.929 9.8625 24.7828 10.3313C24.509 11.6006 21.8381 15.3703 21.8381 15.3703C21.6084 15.7509 21.5203 15.9169 21.8381 16.3416C22.0725 16.6594 22.8347 17.3184 23.3419 17.9091C24.2747 18.9684 24.9918 19.8572 25.1831 20.4722C25.3978 21.0825 25.0809 21.4003 24.465 21.4003L24.4678 21.4012Z" fill="#45668E"/>
</g>
</g>
<defs>
<clipPath id="clip0">
<rect width="36.7661" height="30" fill="white" transform="translate(0.24939)"/>
</clipPath>
<clipPath id="clip1">
<rect width="30" height="30" fill="white" transform="translate(0.24939)"/>
</clipPath>
</defs>
</svg>
