<svg width="33" height="30" viewBox="0 0 33 30" fill="none" xmlns="http://www.w3.org/2000/svg">
<g clip-path="url(#clip0)">
<path d="M30.3909 30.0001C31.3713 30.0001 32.1662 29.2588 32.1662 28.3444V1.65574C32.1662 0.741211 31.3713 0 30.3909 0H1.77524C0.794547 0 -6.10352e-05 0.741211 -6.10352e-05 1.65574V28.3444C-6.10352e-05 29.2588 0.794547 30.0001 1.77524 30.0001H30.3909Z" fill="#395185"/>
<path d="M22.194 30.0001V18.3825H26.3753L27.0013 13.8549H22.194V10.9641C22.194 9.65327 22.5844 8.75995 24.6 8.75995L27.1706 8.7589V4.70948C26.7258 4.65429 25.2 4.53101 23.4248 4.53101C19.7184 4.53101 17.181 6.64097 17.181 10.5159V13.8549H12.9891V18.3825H17.181V30.0001H22.194Z" fill="white"/>
</g>
<defs>
<clipPath id="clip0">
<rect width="32.1663" height="30" fill="white"/>
</clipPath>
</defs>
</svg>
