<svg width="33" height="30" viewBox="0 0 33 30" fill="none" xmlns="http://www.w3.org/2000/svg">
<path d="M22.7343 4.0623C24.2881 4.06663 25.777 4.64423 26.8757 5.66896C27.9744 6.69369 28.5937 8.08227 28.5984 9.53145V20.4686C28.5937 21.9177 27.9744 23.3063 26.8757 24.331C25.777 25.3558 24.2881 25.9334 22.7343 25.9377H11.0074C9.45359 25.9334 7.96474 25.3558 6.86602 24.331C5.7673 23.3063 5.14799 21.9177 5.14335 20.4686V9.53145C5.14799 8.08227 5.7673 6.69369 6.86602 5.66896C7.96474 4.64423 9.45359 4.06663 11.0074 4.0623H22.7343ZM22.7343 1.875H11.0074C6.49219 1.875 2.7981 5.32031 2.7981 9.53145V20.4686C2.7981 24.6797 6.49219 28.125 11.0074 28.125H22.7343C27.2495 28.125 30.9436 24.6797 30.9436 20.4686V9.53145C30.9436 5.32031 27.2495 1.875 22.7343 1.875Z" fill="url(#paint0_linear)"/>
<path d="M24.4934 9.53149C24.1455 9.53149 23.8054 9.43527 23.5161 9.255C23.2268 9.07473 23.0014 8.81849 22.8682 8.51871C22.7351 8.21892 22.7002 7.88905 22.7681 7.5708C22.836 7.25255 23.0035 6.96022 23.2495 6.73077C23.4956 6.50133 23.809 6.34507 24.1502 6.28177C24.4915 6.21847 24.8452 6.25095 25.1666 6.37513C25.488 6.4993 25.7628 6.70959 25.956 6.97939C26.1493 7.24919 26.2525 7.56638 26.2525 7.89087C26.253 8.10645 26.2078 8.32 26.1196 8.51926C26.0314 8.71852 25.9018 8.89956 25.7384 9.052C25.5749 9.20444 25.3808 9.32527 25.1672 9.40755C24.9535 9.48984 24.7246 9.53196 24.4934 9.53149Z" fill="url(#paint1_linear)"/>
<path d="M16.8709 10.6248C17.7987 10.6248 18.7057 10.8814 19.4771 11.3622C20.2486 11.8429 20.8498 12.5262 21.2049 13.3257C21.56 14.1251 21.6529 15.0049 21.4718 15.8536C21.2908 16.7023 20.844 17.4818 20.188 18.0937C19.5319 18.7056 18.696 19.1223 17.786 19.2911C16.8761 19.4599 15.9328 19.3733 15.0756 19.0422C14.2184 18.711 13.4858 18.1502 12.9703 17.4307C12.4549 16.7112 12.1797 15.8653 12.1797 15C12.1811 13.84 12.6757 12.7279 13.5552 11.9076C14.4347 11.0874 15.6271 10.626 16.8709 10.6248ZM16.8709 8.4375C15.4792 8.4375 14.1188 8.82238 12.9617 9.54348C11.8045 10.2646 10.9027 11.2895 10.3701 12.4886C9.83752 13.6878 9.69818 15.0073 9.96968 16.2803C10.2412 17.5533 10.9113 18.7226 11.8954 19.6404C12.8794 20.5582 14.1332 21.1832 15.4981 21.4364C16.863 21.6896 18.2778 21.5597 19.5636 21.063C20.8493 20.5663 21.9482 19.7251 22.7214 18.6459C23.4946 17.5667 23.9072 16.2979 23.9072 15C23.9072 13.2595 23.1659 11.5903 21.8463 10.3596C20.5267 9.1289 18.737 8.4375 16.8709 8.4375Z" fill="url(#paint2_linear)"/>
<defs>
<linearGradient id="paint0_linear" x1="16.8709" y1="1.875" x2="16.8709" y2="28.125" gradientUnits="userSpaceOnUse">
<stop stop-color="#DD2A7B"/>
<stop offset="1" stop-color="#FEDA77" stop-opacity="0.85"/>
</linearGradient>
<linearGradient id="paint1_linear" x1="24.4934" y1="6.25024" x2="24.4934" y2="9.5315" gradientUnits="userSpaceOnUse">
<stop stop-color="#DD2A7B"/>
<stop offset="1" stop-color="#FEDA77" stop-opacity="0.85"/>
</linearGradient>
<linearGradient id="paint2_linear" x1="16.8709" y1="8.4375" x2="16.8709" y2="21.5625" gradientUnits="userSpaceOnUse">
<stop stop-color="#DD2A7B"/>
<stop offset="1" stop-color="#FEDA77" stop-opacity="0.85"/>
</linearGradient>
</defs>
</svg>
