<svg width="130" height="131" viewBox="0 0 130 131" fill="none" xmlns="http://www.w3.org/2000/svg">
<g clip-path="url(#clip0)">
<path fill-rule="evenodd" clip-rule="evenodd" d="M17.2663 106.142V115.136C17.2663 125.74 16.3969 129.558 29.3075 129.558H101.701C114.604 129.558 113.726 125.731 113.726 115.136V106.142H17.2663Z" fill="#D3B7CC"/>
<path fill-rule="evenodd" clip-rule="evenodd" d="M33.5 24.3883H41.0969V49.3483H33.5V24.3883Z" fill="#D3B7CC"/>
<path fill-rule="evenodd" clip-rule="evenodd" d="M57.875 24.3883H66V48.5114H57.875V24.3883Z" fill="#D3B7CC"/>
<path fill-rule="evenodd" clip-rule="evenodd" d="M90.375 24.3883H98.4188V47.5527H90.375V24.3883Z" fill="#D3B7CC"/>
<path fill-rule="evenodd" clip-rule="evenodd" d="M41.3406 7.93518C42.1531 11.2339 40.8694 15.0283 37.79 15.3696C34.9138 15.6946 32.7119 11.9814 34.9219 8.3008C37.1888 4.5633 37.79 0.500805 37.79 0.500805C37.79 0.500805 40.39 3.97018 41.3406 7.93518Z" fill="#D3B7CC"/>
<path fill-rule="evenodd" clip-rule="evenodd" d="M65.4963 8.30893C66.3494 11.7702 65.0006 15.7677 61.6856 16.1252C58.59 16.4664 56.2256 12.5583 58.6144 8.69893C61.0519 4.7583 61.6856 0.49268 61.6856 0.49268C61.6856 0.49268 64.4644 4.14893 65.4963 8.30893Z" fill="#D3B7CC"/>
<path fill-rule="evenodd" clip-rule="evenodd" d="M98.2888 8.32518C99.1988 11.7864 97.7525 15.7677 94.2425 16.1252C90.96 16.4664 88.4413 12.5664 90.9844 8.70706C92.5853 6.21112 93.6914 3.43065 94.2425 0.517056C94.2425 0.517056 97.1919 4.17331 98.2888 8.32518Z" fill="#D3B7CC"/>
<path fill-rule="evenodd" clip-rule="evenodd" d="M26.5613 68.5639C29.9331 68.5639 34.8163 65.3627 36.2544 64.2414C36.295 64.1927 42.1613 58.6839 49.2706 58.6839C56.3475 58.6839 62.4575 64.1439 62.7094 64.3796C64.0256 65.5171 68.3806 68.5639 72.2481 68.5639C76.8144 68.5639 81.2506 64.4608 81.2506 64.4608C81.5756 64.1521 87.645 58.6839 94.9656 58.6839C102.319 58.6839 108.177 64.1927 108.421 64.4283C109.729 65.5496 112.191 67.1989 114.409 68.0196C114.157 57.4489 109.298 49.0071 96.7288 49.0071H35.6044C24.3025 49.0071 19.2081 55.8077 18.1031 64.8427C19.9313 66.1996 23.6931 68.5639 26.5613 68.5639Z" fill="#D3B7CC"/>
<path fill-rule="evenodd" clip-rule="evenodd" d="M104.326 76.9489C104.179 76.8189 99.8 72.7321 94.9738 72.7321C90.1069 72.7321 85.5081 76.8514 85.4513 76.9002C85.24 77.0871 79.3494 82.5877 72.2563 82.5877C65.2281 82.5877 58.9231 77.1683 58.655 76.9327C57.3306 75.7464 53.1138 72.7321 49.2788 72.7321C44.7125 72.7321 40.3088 76.8189 40.2519 76.8514C39.3175 77.5989 32.6794 82.5877 26.5694 82.5877C23.4331 82.5877 20.2969 81.2958 17.8756 79.9471V97.0664H114.474V82.3277C109.509 81.2958 104.911 77.4446 104.326 76.9489Z" fill="#D3B7CC"/>
<path fill-rule="evenodd" clip-rule="evenodd" d="M1.00001 113.763H129.789V129.485H1.00001V113.763Z" fill="#D3B7CC"/>
</g>
<defs>
<clipPath id="clip0">
<rect width="130" height="130" fill="white" transform="translate(6.19888e-06 0.49268)"/>
</clipPath>
</defs>
</svg>
